<svg width="512" height="512" viewBox="0 0 512 512" xmlns="http://www.w3.org/2000/svg">
<defs>
<linearGradient id="g1" x1="0%" y1="0%" x2="100%" y2="100%">
<stop offset="0%" stop-color="#6366f1"/>
<stop offset="100%" stop-color="#06b6d4"/>
</linearGradient>
</defs>

<g transform="translate(256, 256) scale(1.95)">
<!-- Outer brain shape -->
<path d="M100 20 C130 5, 165 10, 175 40 C190 55, 190 85, 175 105 C185 125, 175 155, 145 165 C130 178, 95 180, 80 170 C60 180, 30 175, 20 155 C5 145, 0 120, 10 100 C-5 80, 5 50, 25 38 C35 15, 70 10, 100 20Z" fill="none" stroke="url(#g1)" stroke-width="3" stroke-linecap="round" transform="translate(-95, -95)"/>

<!-- Circuit connections -->
<line x1="-37" y1="-35" x2="3" y2="0" stroke="#6366f1" stroke-width="1.8" stroke-linecap="round"/>
<line x1="33" y1="-40" x2="3" y2="0" stroke="#818cf8" stroke-width="1.8" stroke-linecap="round"/>
<line x1="-42" y1="35" x2="3" y2="0" stroke="#06b6d4" stroke-width="1.8" stroke-linecap="round"/>
<line x1="43" y1="30" x2="3" y2="0" stroke="#22d3ee" stroke-width="1.8" stroke-linecap="round"/>

<!-- Circuit nodes -->
<circle cx="-37" cy="-35" r="7" fill="#6366f1"/>
<circle cx="33" cy="-40" r="7" fill="#818cf8"/>
<circle cx="3" cy="0" r="9" fill="url(#g1)"/>
<circle cx="-42" cy="35" r="7" fill="#06b6d4"/>
<circle cx="43" cy="30" r="7" fill="#22d3ee"/>

<!-- Small dot accents -->
<circle cx="-17" cy="-17" r="3" fill="#a5b4fc" opacity="0.7"/>
<circle cx="21" cy="-20" r="3" fill="#a5b4fc" opacity="0.7"/>
<circle cx="-19" cy="20" r="3" fill="#67e8f9" opacity="0.7"/>
<circle cx="23" cy="17" r="3" fill="#67e8f9" opacity="0.7"/>
</g>
</svg>
